<mxfile host="app.diagrams.net" modified="2022-07-11T15:59:31.778Z" agent="5.0 (X11; Linux x86_64) AppleWebKit/537.36 (KHTML, like Gecko) Chrome/103.0.0.0 Safari/537.36" etag="d8t4Nott-JjlqIpPb-RQ" version="20.0.4" type="github">
  <diagram id="S0muzeH811iaElbRXQwh" name="Page-1">
    <mxGraphModel dx="868" dy="493" grid="1" gridSize="10" guides="1" tooltips="1" connect="1" arrows="1" fold="1" page="1" pageScale="1" pageWidth="827" pageHeight="1169" math="0" shadow="0">
      <root>
        <mxCell id="0" />
        <mxCell id="1" parent="0" />
        <mxCell id="GmzuOYHWyxD52cvPJtEl-1" value="&lt;font style=&quot;font-size: 18px;&quot;&gt;&lt;b&gt;TIKDEM SARL&lt;/b&gt;&lt;/font&gt;&lt;br&gt;&lt;i&gt;organigramme fonctionnel&lt;/i&gt;" style="rounded=0;whiteSpace=wrap;html=1;" vertex="1" parent="1">
          <mxGeometry x="240" y="10" width="320" height="60" as="geometry" />
        </mxCell>
        <mxCell id="GmzuOYHWyxD52cvPJtEl-7" style="edgeStyle=orthogonalEdgeStyle;rounded=0;orthogonalLoop=1;jettySize=auto;html=1;exitX=0;exitY=0.5;exitDx=0;exitDy=0;entryX=0.5;entryY=0;entryDx=0;entryDy=0;fontSize=14;" edge="1" parent="1" source="GmzuOYHWyxD52cvPJtEl-3" target="GmzuOYHWyxD52cvPJtEl-6">
          <mxGeometry relative="1" as="geometry" />
        </mxCell>
        <mxCell id="GmzuOYHWyxD52cvPJtEl-8" style="edgeStyle=orthogonalEdgeStyle;rounded=0;orthogonalLoop=1;jettySize=auto;html=1;exitX=0.5;exitY=1;exitDx=0;exitDy=0;entryX=0.5;entryY=0;entryDx=0;entryDy=0;fontSize=14;" edge="1" parent="1" source="GmzuOYHWyxD52cvPJtEl-3" target="GmzuOYHWyxD52cvPJtEl-5">
          <mxGeometry relative="1" as="geometry" />
        </mxCell>
        <mxCell id="GmzuOYHWyxD52cvPJtEl-9" style="edgeStyle=orthogonalEdgeStyle;rounded=0;orthogonalLoop=1;jettySize=auto;html=1;exitX=1;exitY=0.5;exitDx=0;exitDy=0;fontSize=14;" edge="1" parent="1" source="GmzuOYHWyxD52cvPJtEl-3" target="GmzuOYHWyxD52cvPJtEl-4">
          <mxGeometry relative="1" as="geometry" />
        </mxCell>
        <mxCell id="GmzuOYHWyxD52cvPJtEl-3" value="&lt;font style=&quot;font-size: 14px;&quot;&gt;&lt;b&gt;Direction&amp;nbsp;&lt;/b&gt;&lt;/font&gt;&lt;span style=&quot;font-size: 14px;&quot;&gt;&lt;b&gt;Général&lt;/b&gt;&lt;/span&gt;" style="rounded=1;whiteSpace=wrap;html=1;fontSize=18;" vertex="1" parent="1">
          <mxGeometry x="310" y="120" width="170" height="40" as="geometry" />
        </mxCell>
        <mxCell id="GmzuOYHWyxD52cvPJtEl-4" value="&lt;span style=&quot;font-size: 14px;&quot;&gt;&lt;b&gt;Administration&lt;/b&gt;&lt;/span&gt;" style="rounded=1;whiteSpace=wrap;html=1;fontSize=18;" vertex="1" parent="1">
          <mxGeometry x="560" y="200" width="220" height="40" as="geometry" />
        </mxCell>
        <mxCell id="GmzuOYHWyxD52cvPJtEl-12" style="edgeStyle=orthogonalEdgeStyle;rounded=0;orthogonalLoop=1;jettySize=auto;html=1;exitX=0.5;exitY=1;exitDx=0;exitDy=0;entryX=1;entryY=0.5;entryDx=0;entryDy=0;fontSize=14;" edge="1" parent="1" source="GmzuOYHWyxD52cvPJtEl-5" target="GmzuOYHWyxD52cvPJtEl-10">
          <mxGeometry relative="1" as="geometry" />
        </mxCell>
        <mxCell id="GmzuOYHWyxD52cvPJtEl-13" style="edgeStyle=orthogonalEdgeStyle;rounded=0;orthogonalLoop=1;jettySize=auto;html=1;exitX=0.5;exitY=1;exitDx=0;exitDy=0;entryX=0;entryY=0.5;entryDx=0;entryDy=0;fontSize=14;" edge="1" parent="1" source="GmzuOYHWyxD52cvPJtEl-5" target="GmzuOYHWyxD52cvPJtEl-11">
          <mxGeometry relative="1" as="geometry">
            <Array as="points">
              <mxPoint x="400" y="240" />
              <mxPoint x="400" y="360" />
            </Array>
          </mxGeometry>
        </mxCell>
        <mxCell id="GmzuOYHWyxD52cvPJtEl-17" style="edgeStyle=orthogonalEdgeStyle;rounded=0;orthogonalLoop=1;jettySize=auto;html=1;exitX=0.5;exitY=1;exitDx=0;exitDy=0;entryX=1;entryY=0.5;entryDx=0;entryDy=0;fontSize=14;" edge="1" parent="1" source="GmzuOYHWyxD52cvPJtEl-5" target="GmzuOYHWyxD52cvPJtEl-16">
          <mxGeometry relative="1" as="geometry" />
        </mxCell>
        <mxCell id="GmzuOYHWyxD52cvPJtEl-18" style="edgeStyle=orthogonalEdgeStyle;rounded=0;orthogonalLoop=1;jettySize=auto;html=1;exitX=0.5;exitY=1;exitDx=0;exitDy=0;entryX=0;entryY=0.5;entryDx=0;entryDy=0;fontSize=14;" edge="1" parent="1" source="GmzuOYHWyxD52cvPJtEl-5" target="GmzuOYHWyxD52cvPJtEl-15">
          <mxGeometry relative="1" as="geometry">
            <Array as="points">
              <mxPoint x="400" y="240" />
              <mxPoint x="400" y="499" />
            </Array>
          </mxGeometry>
        </mxCell>
        <mxCell id="GmzuOYHWyxD52cvPJtEl-5" value="&lt;span style=&quot;font-size: 14px;&quot;&gt;&lt;b&gt;Production&lt;/b&gt;&lt;/span&gt;" style="rounded=1;whiteSpace=wrap;html=1;fontSize=18;" vertex="1" parent="1">
          <mxGeometry x="310" y="200" width="170" height="40" as="geometry" />
        </mxCell>
        <mxCell id="GmzuOYHWyxD52cvPJtEl-6" value="&lt;span style=&quot;font-size: 14px;&quot;&gt;&lt;b&gt;Responsable Commercial&lt;/b&gt;&lt;/span&gt;" style="rounded=1;whiteSpace=wrap;html=1;fontSize=18;" vertex="1" parent="1">
          <mxGeometry x="40" y="200" width="200" height="40" as="geometry" />
        </mxCell>
        <mxCell id="GmzuOYHWyxD52cvPJtEl-10" value="&lt;b&gt;Ingenieurie&lt;/b&gt;&lt;br&gt;&lt;i style=&quot;&quot;&gt;Ingenieur d&#39;etude&lt;/i&gt;" style="rounded=1;whiteSpace=wrap;html=1;fontSize=14;" vertex="1" parent="1">
          <mxGeometry x="40" y="320" width="250" height="80" as="geometry" />
        </mxCell>
        <mxCell id="GmzuOYHWyxD52cvPJtEl-11" value="&lt;b&gt;Assistance et formation&lt;/b&gt;&lt;br&gt;&lt;i&gt;Formateur &amp;amp; Web designer Counseilling&lt;/i&gt;" style="rounded=1;whiteSpace=wrap;html=1;fontSize=14;" vertex="1" parent="1">
          <mxGeometry x="520" y="320" width="260" height="80" as="geometry" />
        </mxCell>
        <mxCell id="GmzuOYHWyxD52cvPJtEl-14" style="edgeStyle=orthogonalEdgeStyle;rounded=0;orthogonalLoop=1;jettySize=auto;html=1;exitX=0.5;exitY=1;exitDx=0;exitDy=0;fontSize=14;" edge="1" parent="1" source="GmzuOYHWyxD52cvPJtEl-11" target="GmzuOYHWyxD52cvPJtEl-11">
          <mxGeometry relative="1" as="geometry" />
        </mxCell>
        <mxCell id="GmzuOYHWyxD52cvPJtEl-15" value="&lt;span style=&quot;font-size: 14px;&quot;&gt;&lt;b&gt;Consultants Externes&lt;/b&gt;&lt;/span&gt;" style="rounded=1;whiteSpace=wrap;html=1;fontSize=18;" vertex="1" parent="1">
          <mxGeometry x="562" y="479" width="200" height="40" as="geometry" />
        </mxCell>
        <mxCell id="GmzuOYHWyxD52cvPJtEl-16" value="&lt;span style=&quot;font-size: 14px;&quot;&gt;&lt;b&gt;Partenaire Hebergement&lt;/b&gt;&lt;/span&gt;" style="rounded=1;whiteSpace=wrap;html=1;fontSize=18;" vertex="1" parent="1">
          <mxGeometry x="40" y="479" width="200" height="40" as="geometry" />
        </mxCell>
      </root>
    </mxGraphModel>
  </diagram>
</mxfile>
